<svg width="627" height="341" viewBox="0 0 627 341" fill="none" xmlns="http://www.w3.org/2000/svg">
<g filter="url(#filter0_d)">
<path d="M4 18C4 8.05888 12.0589 0 22 0H605C614.941 0 623 8.05887 623 18V315C623 324.941 614.941 333 605 333H22C12.0589 333 4 324.941 4 315V18Z" fill="white"/>
</g>
<rect x="4" y="135.281" width="619" height="62.6703" fill="#00B45D" fill-opacity="0.36"/>
<rect x="4" y="56.1937" width="619" height="62.6703" fill="#00B45D" fill-opacity="0.36"/>
<path d="M170.26 168.65L172.68 160.69H176.32L172.36 171.85H168.14L164.18 160.69H167.84L170.26 168.65ZM186.36 163.41V166.25H177.56V163.41H186.36ZM205.381 160.69L202.361 171.85H198.581L196.821 164.61L195.001 171.85H191.241L188.201 160.69H191.621L193.201 168.67L195.081 160.69H198.701L200.601 168.63L202.161 160.69H205.381ZM215.285 163.41V166.25H206.485V163.41H215.285ZM218.867 163.45C219.52 163.423 220 163.283 220.307 163.03C220.614 162.763 220.767 162.39 220.767 161.91C220.767 161.55 220.7 160.837 220.567 159.77C220.554 159.663 220.514 159.323 220.447 158.75C220.38 158.163 220.347 157.637 220.347 157.17C220.347 156.037 220.694 155.157 221.387 154.53C222.08 153.89 223.007 153.57 224.167 153.57H225.607V156.37H224.827C224.4 156.37 224.094 156.463 223.907 156.65C223.72 156.837 223.627 157.123 223.627 157.51C223.627 157.803 223.68 158.47 223.787 159.51C223.907 160.803 223.967 161.65 223.967 162.05C223.967 162.783 223.787 163.39 223.427 163.87C223.08 164.35 222.547 164.657 221.827 164.79V164.83C222.547 164.977 223.08 165.29 223.427 165.77C223.787 166.237 223.967 166.843 223.967 167.59C223.967 167.99 223.907 168.837 223.787 170.13C223.68 171.143 223.627 171.803 223.627 172.11C223.627 172.497 223.72 172.783 223.907 172.97C224.094 173.17 224.4 173.27 224.827 173.27H225.607V176.07H224.167C223.007 176.07 222.08 175.75 221.387 175.11C220.694 174.483 220.347 173.597 220.347 172.45C220.347 171.983 220.38 171.463 220.447 170.89C220.514 170.303 220.554 169.957 220.567 169.85C220.7 168.783 220.767 168.07 220.767 167.71C220.767 167.257 220.614 166.897 220.307 166.63C220 166.35 219.52 166.197 218.867 166.17V163.45ZM227.587 166.27C227.587 165.11 227.821 164.097 228.287 163.23C228.767 162.363 229.427 161.697 230.267 161.23C231.121 160.763 232.094 160.53 233.187 160.53C234.587 160.53 235.754 160.897 236.687 161.63C237.634 162.363 238.254 163.397 238.547 164.73H234.907C234.601 163.877 234.007 163.45 233.127 163.45C232.501 163.45 232.001 163.697 231.627 164.19C231.254 164.67 231.067 165.363 231.067 166.27C231.067 167.177 231.254 167.877 231.627 168.37C232.001 168.85 232.501 169.09 233.127 169.09C234.007 169.09 234.601 168.663 234.907 167.81H238.547C238.254 169.117 237.634 170.143 236.687 170.89C235.741 171.637 234.574 172.01 233.187 172.01C232.094 172.01 231.121 171.777 230.267 171.31C229.427 170.843 228.767 170.177 228.287 169.31C227.821 168.443 227.587 167.43 227.587 166.27ZM251.397 160.69V171.85H247.977V170.33C247.63 170.823 247.157 171.223 246.557 171.53C245.97 171.823 245.317 171.97 244.597 171.97C243.743 171.97 242.99 171.783 242.337 171.41C241.683 171.023 241.177 170.47 240.817 169.75C240.457 169.03 240.277 168.183 240.277 167.21V160.69H243.677V166.75C243.677 167.497 243.87 168.077 244.257 168.49C244.643 168.903 245.163 169.11 245.817 169.11C246.483 169.11 247.01 168.903 247.397 168.49C247.783 168.077 247.977 167.497 247.977 166.75V160.69H251.397ZM258.393 172.01C257.42 172.01 256.553 171.843 255.793 171.51C255.033 171.177 254.433 170.723 253.993 170.15C253.553 169.563 253.307 168.91 253.253 168.19H256.633C256.673 168.577 256.853 168.89 257.173 169.13C257.493 169.37 257.887 169.49 258.353 169.49C258.78 169.49 259.107 169.41 259.333 169.25C259.573 169.077 259.693 168.857 259.693 168.59C259.693 168.27 259.527 168.037 259.193 167.89C258.86 167.73 258.32 167.557 257.573 167.37C256.773 167.183 256.107 166.99 255.573 166.79C255.04 166.577 254.58 166.25 254.193 165.81C253.807 165.357 253.613 164.75 253.613 163.99C253.613 163.35 253.787 162.77 254.133 162.25C254.493 161.717 255.013 161.297 255.693 160.99C256.387 160.683 257.207 160.53 258.153 160.53C259.553 160.53 260.653 160.877 261.453 161.57C262.267 162.263 262.733 163.183 262.853 164.33H259.693C259.64 163.943 259.467 163.637 259.173 163.41C258.893 163.183 258.52 163.07 258.053 163.07C257.653 163.07 257.347 163.15 257.133 163.31C256.92 163.457 256.813 163.663 256.813 163.93C256.813 164.25 256.98 164.49 257.313 164.65C257.66 164.81 258.193 164.97 258.913 165.13C259.74 165.343 260.413 165.557 260.933 165.77C261.453 165.97 261.907 166.303 262.293 166.77C262.693 167.223 262.9 167.837 262.913 168.61C262.913 169.263 262.727 169.85 262.353 170.37C261.993 170.877 261.467 171.277 260.773 171.57C260.093 171.863 259.3 172.01 258.393 172.01ZM271.226 168.95V171.85H269.486C268.246 171.85 267.279 171.55 266.586 170.95C265.892 170.337 265.546 169.343 265.546 167.97V163.53H264.186V160.69H265.546V157.97H268.966V160.69H271.206V163.53H268.966V168.01C268.966 168.343 269.046 168.583 269.206 168.73C269.366 168.877 269.632 168.95 270.006 168.95H271.226ZM278.211 172.01C277.117 172.01 276.131 171.777 275.251 171.31C274.384 170.843 273.697 170.177 273.191 169.31C272.697 168.443 272.451 167.43 272.451 166.27C272.451 165.123 272.704 164.117 273.211 163.25C273.717 162.37 274.411 161.697 275.291 161.23C276.171 160.763 277.157 160.53 278.251 160.53C279.344 160.53 280.331 160.763 281.211 161.23C282.091 161.697 282.784 162.37 283.291 163.25C283.797 164.117 284.051 165.123 284.051 166.27C284.051 167.417 283.791 168.43 283.271 169.31C282.764 170.177 282.064 170.843 281.171 171.31C280.291 171.777 279.304 172.01 278.211 172.01ZM278.211 169.05C278.864 169.05 279.417 168.81 279.871 168.33C280.337 167.85 280.571 167.163 280.571 166.27C280.571 165.377 280.344 164.69 279.891 164.21C279.451 163.73 278.904 163.49 278.251 163.49C277.584 163.49 277.031 163.73 276.591 164.21C276.151 164.677 275.931 165.363 275.931 166.27C275.931 167.163 276.144 167.85 276.571 168.33C277.011 168.81 277.557 169.05 278.211 169.05ZM300.105 160.57C301.492 160.57 302.592 160.99 303.405 161.83C304.232 162.67 304.645 163.837 304.645 165.33V171.85H301.245V165.79C301.245 165.07 301.052 164.517 300.665 164.13C300.292 163.73 299.772 163.53 299.105 163.53C298.438 163.53 297.912 163.73 297.525 164.13C297.152 164.517 296.965 165.07 296.965 165.79V171.85H293.565V165.79C293.565 165.07 293.372 164.517 292.985 164.13C292.612 163.73 292.092 163.53 291.425 163.53C290.758 163.53 290.232 163.73 289.845 164.13C289.472 164.517 289.285 165.07 289.285 165.79V171.85H285.865V160.69H289.285V162.09C289.632 161.623 290.085 161.257 290.645 160.99C291.205 160.71 291.838 160.57 292.545 160.57C293.385 160.57 294.132 160.75 294.785 161.11C295.452 161.47 295.972 161.983 296.345 162.65C296.732 162.037 297.258 161.537 297.925 161.15C298.592 160.763 299.318 160.57 300.105 160.57ZM316.295 168.65L318.715 160.69H322.355L318.395 171.85H314.175L310.215 160.69H313.875L316.295 168.65ZM323.115 166.25C323.115 165.103 323.328 164.097 323.755 163.23C324.195 162.363 324.788 161.697 325.535 161.23C326.281 160.763 327.115 160.53 328.035 160.53C328.821 160.53 329.508 160.69 330.095 161.01C330.695 161.33 331.155 161.75 331.475 162.27V160.69H334.895V171.85H331.475V170.27C331.141 170.79 330.675 171.21 330.075 171.53C329.488 171.85 328.801 172.01 328.015 172.01C327.108 172.01 326.281 171.777 325.535 171.31C324.788 170.83 324.195 170.157 323.755 169.29C323.328 168.41 323.115 167.397 323.115 166.25ZM331.475 166.27C331.475 165.417 331.235 164.743 330.755 164.25C330.288 163.757 329.715 163.51 329.035 163.51C328.355 163.51 327.775 163.757 327.295 164.25C326.828 164.73 326.595 165.397 326.595 166.25C326.595 167.103 326.828 167.783 327.295 168.29C327.775 168.783 328.355 169.03 329.035 169.03C329.715 169.03 330.288 168.783 330.755 168.29C331.235 167.797 331.475 167.123 331.475 166.27ZM340.789 157.05V171.85H337.369V157.05H340.789ZM354.287 160.69V171.85H350.867V170.33C350.521 170.823 350.047 171.223 349.447 171.53C348.861 171.823 348.207 171.97 347.487 171.97C346.634 171.97 345.881 171.783 345.227 171.41C344.574 171.023 344.067 170.47 343.707 169.75C343.347 169.03 343.167 168.183 343.167 167.21V160.69H346.567V166.75C346.567 167.497 346.761 168.077 347.147 168.49C347.534 168.903 348.054 169.11 348.707 169.11C349.374 169.11 349.901 168.903 350.287 168.49C350.674 168.077 350.867 167.497 350.867 166.75V160.69H354.287ZM367.264 166.09C367.264 166.41 367.244 166.743 367.204 167.09H359.464C359.517 167.783 359.737 168.317 360.124 168.69C360.524 169.05 361.011 169.23 361.584 169.23C362.437 169.23 363.031 168.87 363.364 168.15H367.004C366.817 168.883 366.477 169.543 365.984 170.13C365.504 170.717 364.897 171.177 364.164 171.51C363.431 171.843 362.611 172.01 361.704 172.01C360.611 172.01 359.637 171.777 358.784 171.31C357.931 170.843 357.264 170.177 356.784 169.31C356.304 168.443 356.064 167.43 356.064 166.27C356.064 165.11 356.297 164.097 356.764 163.23C357.244 162.363 357.911 161.697 358.764 161.23C359.617 160.763 360.597 160.53 361.704 160.53C362.784 160.53 363.744 160.757 364.584 161.21C365.424 161.663 366.077 162.31 366.544 163.15C367.024 163.99 367.264 164.97 367.264 166.09ZM363.764 165.19C363.764 164.603 363.564 164.137 363.164 163.79C362.764 163.443 362.264 163.27 361.664 163.27C361.091 163.27 360.604 163.437 360.204 163.77C359.817 164.103 359.577 164.577 359.484 165.19H363.764ZM375.988 166.17C375.335 166.197 374.855 166.35 374.548 166.63C374.241 166.897 374.088 167.257 374.088 167.71C374.088 168.07 374.155 168.783 374.288 169.85C374.301 169.957 374.341 170.303 374.408 170.89C374.475 171.463 374.508 171.983 374.508 172.45C374.508 173.597 374.161 174.483 373.468 175.11C372.775 175.75 371.848 176.07 370.688 176.07H369.248V173.27H370.028C370.455 173.27 370.761 173.17 370.948 172.97C371.135 172.783 371.228 172.497 371.228 172.11C371.228 171.803 371.175 171.143 371.068 170.13C370.948 168.837 370.888 167.99 370.888 167.59C370.888 166.843 371.061 166.237 371.408 165.77C371.768 165.29 372.308 164.977 373.028 164.83V164.79C372.308 164.657 371.768 164.35 371.408 163.87C371.061 163.39 370.888 162.783 370.888 162.05C370.888 161.65 370.948 160.803 371.068 159.51C371.175 158.47 371.228 157.803 371.228 157.51C371.228 157.123 371.135 156.837 370.948 156.65C370.761 156.463 370.455 156.37 370.028 156.37H369.248V153.57H370.688C371.848 153.57 372.775 153.89 373.468 154.53C374.161 155.157 374.508 156.037 374.508 157.17C374.508 157.637 374.475 158.163 374.408 158.75C374.341 159.323 374.301 159.663 374.288 159.77C374.155 160.837 374.088 161.55 374.088 161.91C374.088 162.39 374.241 162.763 374.548 163.03C374.855 163.283 375.335 163.423 375.988 163.45V166.17Z" fill="black"/>
<path d="M170.26 89.5625L172.68 81.6025H176.32L172.36 92.7625H168.14L164.18 81.6025H167.84L170.26 89.5625ZM186.36 84.3225V87.1625H177.56V84.3225H186.36ZM192.781 83.1825C193.101 82.6625 193.561 82.2425 194.161 81.9225C194.761 81.6025 195.448 81.4425 196.221 81.4425C197.141 81.4425 197.974 81.6758 198.721 82.1425C199.468 82.6091 200.054 83.2758 200.481 84.1425C200.921 85.0091 201.141 86.0158 201.141 87.1625C201.141 88.3091 200.921 89.3225 200.481 90.2025C200.054 91.0691 199.468 91.7425 198.721 92.2225C197.974 92.6891 197.141 92.9225 196.221 92.9225C195.434 92.9225 194.748 92.7691 194.161 92.4625C193.574 92.1425 193.114 91.7225 192.781 91.2025V92.7625H189.361V77.9625H192.781V83.1825ZM197.661 87.1625C197.661 86.3091 197.421 85.6425 196.941 85.1625C196.474 84.6691 195.894 84.4225 195.201 84.4225C194.521 84.4225 193.941 84.6691 193.461 85.1625C192.994 85.6558 192.761 86.3291 192.761 87.1825C192.761 88.0358 192.994 88.7091 193.461 89.2025C193.941 89.6958 194.521 89.9425 195.201 89.9425C195.881 89.9425 196.461 89.6958 196.941 89.2025C197.421 88.6958 197.661 88.0158 197.661 87.1625ZM207.175 81.4425C207.962 81.4425 208.649 81.6025 209.235 81.9225C209.835 82.2425 210.295 82.6625 210.615 83.1825V81.6025H214.035V92.7425C214.035 93.7691 213.829 94.6958 213.415 95.5225C213.015 96.3625 212.395 97.0291 211.555 97.5225C210.729 98.0158 209.695 98.2625 208.455 98.2625C206.802 98.2625 205.462 97.8691 204.435 97.0825C203.409 96.3091 202.822 95.2558 202.675 93.9225H206.055C206.162 94.3491 206.415 94.6825 206.815 94.9225C207.215 95.1758 207.709 95.3025 208.295 95.3025C209.002 95.3025 209.562 95.0958 209.975 94.6825C210.402 94.2825 210.615 93.6358 210.615 92.7425V91.1625C210.282 91.6825 209.822 92.1091 209.235 92.4425C208.649 92.7625 207.962 92.9225 207.175 92.9225C206.255 92.9225 205.422 92.6891 204.675 92.2225C203.929 91.7425 203.335 91.0691 202.895 90.2025C202.469 89.3225 202.255 88.3091 202.255 87.1625C202.255 86.0158 202.469 85.0091 202.895 84.1425C203.335 83.2758 203.929 82.6091 204.675 82.1425C205.422 81.6758 206.255 81.4425 207.175 81.4425ZM210.615 87.1825C210.615 86.3291 210.375 85.6558 209.895 85.1625C209.429 84.6691 208.855 84.4225 208.175 84.4225C207.495 84.4225 206.915 84.6691 206.435 85.1625C205.969 85.6425 205.735 86.3091 205.735 87.1625C205.735 88.0158 205.969 88.6958 206.435 89.2025C206.915 89.6958 207.495 89.9425 208.175 89.9425C208.855 89.9425 209.429 89.6958 209.895 89.2025C210.375 88.7091 210.615 88.0358 210.615 87.1825ZM225.11 84.3225V87.1625H216.31V84.3225H225.11ZM228.691 84.3625C229.344 84.3358 229.824 84.1958 230.131 83.9425C230.438 83.6758 230.591 83.3025 230.591 82.8225C230.591 82.4625 230.524 81.7491 230.391 80.6825C230.378 80.5758 230.338 80.2358 230.271 79.6625C230.204 79.0758 230.171 78.5491 230.171 78.0825C230.171 76.9491 230.518 76.0691 231.211 75.4425C231.904 74.8025 232.831 74.4825 233.991 74.4825H235.431V77.2825H234.651C234.224 77.2825 233.918 77.3758 233.731 77.5625C233.544 77.7491 233.451 78.0358 233.451 78.4225C233.451 78.7158 233.504 79.3825 233.611 80.4225C233.731 81.7158 233.791 82.5625 233.791 82.9625C233.791 83.6958 233.611 84.3025 233.251 84.7825C232.904 85.2625 232.371 85.5691 231.651 85.7025V85.7425C232.371 85.8891 232.904 86.2025 233.251 86.6825C233.611 87.1491 233.791 87.7558 233.791 88.5025C233.791 88.9025 233.731 89.7491 233.611 91.0425C233.504 92.0558 233.451 92.7158 233.451 93.0225C233.451 93.4091 233.544 93.6958 233.731 93.8825C233.918 94.0825 234.224 94.1825 234.651 94.1825H235.431V96.9825H233.991C232.831 96.9825 231.904 96.6625 231.211 96.0225C230.518 95.3958 230.171 94.5091 230.171 93.3625C230.171 92.8958 230.204 92.3758 230.271 91.8025C230.338 91.2158 230.378 90.8691 230.391 90.7625C230.524 89.6958 230.591 88.9825 230.591 88.6225C230.591 88.1691 230.438 87.8091 230.131 87.5425C229.824 87.2625 229.344 87.1091 228.691 87.0825V84.3625ZM237.412 87.1825C237.412 86.0225 237.645 85.0091 238.112 84.1425C238.592 83.2758 239.252 82.6091 240.092 82.1425C240.945 81.6758 241.918 81.4425 243.012 81.4425C244.412 81.4425 245.578 81.8091 246.512 82.5425C247.458 83.2758 248.078 84.3091 248.372 85.6425H244.732C244.425 84.7891 243.832 84.3625 242.952 84.3625C242.325 84.3625 241.825 84.6091 241.452 85.1025C241.078 85.5825 240.892 86.2758 240.892 87.1825C240.892 88.0891 241.078 88.7891 241.452 89.2825C241.825 89.7625 242.325 90.0025 242.952 90.0025C243.832 90.0025 244.425 89.5758 244.732 88.7225H248.372C248.078 90.0291 247.458 91.0558 246.512 91.8025C245.565 92.5491 244.398 92.9225 243.012 92.9225C241.918 92.9225 240.945 92.6891 240.092 92.2225C239.252 91.7558 238.592 91.0891 238.112 90.2225C237.645 89.3558 237.412 88.3425 237.412 87.1825ZM261.221 81.6025V92.7625H257.801V91.2425C257.454 91.7358 256.981 92.1358 256.381 92.4425C255.794 92.7358 255.141 92.8825 254.421 92.8825C253.568 92.8825 252.814 92.6958 252.161 92.3225C251.508 91.9358 251.001 91.3825 250.641 90.6625C250.281 89.9425 250.101 89.0958 250.101 88.1225V81.6025H253.501V87.6625C253.501 88.4091 253.694 88.9891 254.081 89.4025C254.468 89.8158 254.988 90.0225 255.641 90.0225C256.308 90.0225 256.834 89.8158 257.221 89.4025C257.608 88.9891 257.801 88.4091 257.801 87.6625V81.6025H261.221ZM268.218 92.9225C267.244 92.9225 266.378 92.7558 265.618 92.4225C264.858 92.0891 264.258 91.6358 263.818 91.0625C263.378 90.4758 263.131 89.8225 263.078 89.1025H266.458C266.498 89.4891 266.678 89.8025 266.998 90.0425C267.318 90.2825 267.711 90.4025 268.178 90.4025C268.604 90.4025 268.931 90.3225 269.158 90.1625C269.398 89.9891 269.518 89.7691 269.518 89.5025C269.518 89.1825 269.351 88.9491 269.018 88.8025C268.684 88.6425 268.144 88.4691 267.398 88.2825C266.598 88.0958 265.931 87.9025 265.398 87.7025C264.864 87.4891 264.404 87.1625 264.018 86.7225C263.631 86.2691 263.438 85.6625 263.438 84.9025C263.438 84.2625 263.611 83.6825 263.958 83.1625C264.318 82.6291 264.838 82.2091 265.518 81.9025C266.211 81.5958 267.031 81.4425 267.978 81.4425C269.378 81.4425 270.478 81.7891 271.278 82.4825C272.091 83.1758 272.558 84.0958 272.678 85.2425H269.518C269.464 84.8558 269.291 84.5491 268.998 84.3225C268.718 84.0958 268.344 83.9825 267.878 83.9825C267.478 83.9825 267.171 84.0625 266.958 84.2225C266.744 84.3691 266.638 84.5758 266.638 84.8425C266.638 85.1625 266.804 85.4025 267.138 85.5625C267.484 85.7225 268.018 85.8825 268.738 86.0425C269.564 86.2558 270.238 86.4691 270.758 86.6825C271.278 86.8825 271.731 87.2158 272.118 87.6825C272.518 88.1358 272.724 88.7491 272.738 89.5225C272.738 90.1758 272.551 90.7625 272.178 91.2825C271.818 91.7891 271.291 92.1891 270.598 92.4825C269.918 92.7758 269.124 92.9225 268.218 92.9225ZM281.05 89.8625V92.7625H279.31C278.07 92.7625 277.103 92.4625 276.41 91.8625C275.717 91.2491 275.37 90.2558 275.37 88.8825V84.4425H274.01V81.6025H275.37V78.8825H278.79V81.6025H281.03V84.4425H278.79V88.9225C278.79 89.2558 278.87 89.4958 279.03 89.6425C279.19 89.7891 279.457 89.8625 279.83 89.8625H281.05ZM288.035 92.9225C286.942 92.9225 285.955 92.6891 285.075 92.2225C284.208 91.7558 283.522 91.0891 283.015 90.2225C282.522 89.3558 282.275 88.3425 282.275 87.1825C282.275 86.0358 282.528 85.0291 283.035 84.1625C283.542 83.2825 284.235 82.6091 285.115 82.1425C285.995 81.6758 286.982 81.4425 288.075 81.4425C289.168 81.4425 290.155 81.6758 291.035 82.1425C291.915 82.6091 292.608 83.2825 293.115 84.1625C293.622 85.0291 293.875 86.0358 293.875 87.1825C293.875 88.3291 293.615 89.3425 293.095 90.2225C292.588 91.0891 291.888 91.7558 290.995 92.2225C290.115 92.6891 289.128 92.9225 288.035 92.9225ZM288.035 89.9625C288.688 89.9625 289.242 89.7225 289.695 89.2425C290.162 88.7625 290.395 88.0758 290.395 87.1825C290.395 86.2891 290.168 85.6025 289.715 85.1225C289.275 84.6425 288.728 84.4025 288.075 84.4025C287.408 84.4025 286.855 84.6425 286.415 85.1225C285.975 85.5891 285.755 86.2758 285.755 87.1825C285.755 88.0758 285.968 88.7625 286.395 89.2425C286.835 89.7225 287.382 89.9625 288.035 89.9625ZM309.929 81.4825C311.316 81.4825 312.416 81.9025 313.229 82.7425C314.056 83.5825 314.469 84.7491 314.469 86.2425V92.7625H311.069V86.7025C311.069 85.9825 310.876 85.4291 310.489 85.0425C310.116 84.6425 309.596 84.4425 308.929 84.4425C308.263 84.4425 307.736 84.6425 307.349 85.0425C306.976 85.4291 306.789 85.9825 306.789 86.7025V92.7625H303.389V86.7025C303.389 85.9825 303.196 85.4291 302.809 85.0425C302.436 84.6425 301.916 84.4425 301.249 84.4425C300.583 84.4425 300.056 84.6425 299.669 85.0425C299.296 85.4291 299.109 85.9825 299.109 86.7025V92.7625H295.689V81.6025H299.109V83.0025C299.456 82.5358 299.909 82.1691 300.469 81.9025C301.029 81.6225 301.663 81.4825 302.369 81.4825C303.209 81.4825 303.956 81.6625 304.609 82.0225C305.276 82.3825 305.796 82.8958 306.169 83.5625C306.556 82.9491 307.083 82.4491 307.749 82.0625C308.416 81.6758 309.143 81.4825 309.929 81.4825ZM326.119 89.5625L328.539 81.6025H332.179L328.219 92.7625H323.999L320.039 81.6025H323.699L326.119 89.5625ZM332.939 87.1625C332.939 86.0158 333.152 85.0091 333.579 84.1425C334.019 83.2758 334.612 82.6091 335.359 82.1425C336.106 81.6758 336.939 81.4425 337.859 81.4425C338.646 81.4425 339.332 81.6025 339.919 81.9225C340.519 82.2425 340.979 82.6625 341.299 83.1825V81.6025H344.719V92.7625H341.299V91.1825C340.966 91.7025 340.499 92.1225 339.899 92.4425C339.312 92.7625 338.626 92.9225 337.839 92.9225C336.932 92.9225 336.106 92.6891 335.359 92.2225C334.612 91.7425 334.019 91.0691 333.579 90.2025C333.152 89.3225 332.939 88.3091 332.939 87.1625ZM341.299 87.1825C341.299 86.3291 341.059 85.6558 340.579 85.1625C340.112 84.6691 339.539 84.4225 338.859 84.4225C338.179 84.4225 337.599 84.6691 337.119 85.1625C336.652 85.6425 336.419 86.3091 336.419 87.1625C336.419 88.0158 336.652 88.6958 337.119 89.2025C337.599 89.6958 338.179 89.9425 338.859 89.9425C339.539 89.9425 340.112 89.6958 340.579 89.2025C341.059 88.7091 341.299 88.0358 341.299 87.1825ZM350.613 77.9625V92.7625H347.193V77.9625H350.613ZM364.112 81.6025V92.7625H360.692V91.2425C360.345 91.7358 359.872 92.1358 359.272 92.4425C358.685 92.7358 358.032 92.8825 357.312 92.8825C356.458 92.8825 355.705 92.6958 355.052 92.3225C354.398 91.9358 353.892 91.3825 353.532 90.6625C353.172 89.9425 352.992 89.0958 352.992 88.1225V81.6025H356.392V87.6625C356.392 88.4091 356.585 88.9891 356.972 89.4025C357.358 89.8158 357.878 90.0225 358.532 90.0225C359.198 90.0225 359.725 89.8158 360.112 89.4025C360.498 88.9891 360.692 88.4091 360.692 87.6625V81.6025H364.112ZM377.088 87.0025C377.088 87.3225 377.068 87.6558 377.028 88.0025H369.288C369.341 88.6958 369.561 89.2291 369.948 89.6025C370.348 89.9625 370.835 90.1425 371.408 90.1425C372.261 90.1425 372.855 89.7825 373.188 89.0625H376.828C376.641 89.7958 376.301 90.4558 375.808 91.0425C375.328 91.6291 374.721 92.0891 373.988 92.4225C373.255 92.7558 372.435 92.9225 371.528 92.9225C370.435 92.9225 369.461 92.6891 368.608 92.2225C367.755 91.7558 367.088 91.0891 366.608 90.2225C366.128 89.3558 365.888 88.3425 365.888 87.1825C365.888 86.0225 366.121 85.0091 366.588 84.1425C367.068 83.2758 367.735 82.6091 368.588 82.1425C369.441 81.6758 370.421 81.4425 371.528 81.4425C372.608 81.4425 373.568 81.6691 374.408 82.1225C375.248 82.5758 375.901 83.2225 376.368 84.0625C376.848 84.9025 377.088 85.8825 377.088 87.0025ZM373.588 86.1025C373.588 85.5158 373.388 85.0491 372.988 84.7025C372.588 84.3558 372.088 84.1825 371.488 84.1825C370.915 84.1825 370.428 84.3491 370.028 84.6825C369.641 85.0158 369.401 85.4891 369.308 86.1025H373.588ZM385.812 87.0825C385.159 87.1091 384.679 87.2625 384.372 87.5425C384.066 87.8091 383.912 88.1691 383.912 88.6225C383.912 88.9825 383.979 89.6958 384.112 90.7625C384.126 90.8691 384.166 91.2158 384.232 91.8025C384.299 92.3758 384.332 92.8958 384.332 93.3625C384.332 94.5091 383.986 95.3958 383.292 96.0225C382.599 96.6625 381.672 96.9825 380.512 96.9825H379.072V94.1825H379.852C380.279 94.1825 380.586 94.0825 380.772 93.8825C380.959 93.6958 381.052 93.4091 381.052 93.0225C381.052 92.7158 380.999 92.0558 380.892 91.0425C380.772 89.7491 380.712 88.9025 380.712 88.5025C380.712 87.7558 380.886 87.1491 381.232 86.6825C381.592 86.2025 382.132 85.8891 382.852 85.7425V85.7025C382.132 85.5691 381.592 85.2625 381.232 84.7825C380.886 84.3025 380.712 83.6958 380.712 82.9625C380.712 82.5625 380.772 81.7158 380.892 80.4225C380.999 79.3825 381.052 78.7158 381.052 78.4225C381.052 78.0358 380.959 77.7491 380.772 77.5625C380.586 77.3758 380.279 77.2825 379.852 77.2825H379.072V74.4825H380.512C381.672 74.4825 382.599 74.8025 383.292 75.4425C383.986 76.0691 384.332 76.9491 384.332 78.0825C384.332 78.5491 384.299 79.0758 384.232 79.6625C384.166 80.2358 384.126 80.5758 384.112 80.6825C383.979 81.7491 383.912 82.4625 383.912 82.8225C383.912 83.3025 384.066 83.6758 384.372 83.9425C384.679 84.1958 385.159 84.3358 385.812 84.3625V87.0825Z" fill="black"/>
<rect x="57" y="142.566" width="57.8259" height="47.543" rx="10" fill="#262D47"/>
<rect x="56" y="63.4781" width="57.8259" height="47.543" rx="10" fill="#262D47"/>
<path d="M88.656 166.176H84.48V170.448H80.592V166.176H76.416V162.504H80.592V158.208H84.48V162.504H88.656V166.176Z" fill="#56FF9A"/>
<path d="M88.656 86.048H84.48V90.32H80.592V86.048H76.416V82.376H80.592V78.08H84.48V82.376H88.656V86.048Z" fill="#56FF9A"/>
<rect x="4" y="215.024" width="619" height="62.6703" fill="#00B45D" fill-opacity="0.36"/>
<path d="M591.459 245.819C591.459 237.166 598.473 230.151 607.126 230.151H623V261.486H607.126C598.473 261.486 591.459 254.472 591.459 245.819V245.819Z" fill="#262D47"/>
<rect x="56.569" y="222.587" width="57.8259" height="47.543" rx="10" fill="#262D47"/>
<path d="M88.6241 246.358H84.4481V250.63H80.5601V246.358H76.3841V242.686H80.5601V238.39H84.4481V242.686H88.6241V246.358Z" fill="#56FF9A"/>
<path d="M170.26 248.778L172.68 240.818H176.32L172.36 251.978H168.14L164.18 240.818H167.84L170.26 248.778ZM186.36 243.538V246.378H177.56V243.538H186.36ZM196.221 240.698C197.501 240.698 198.528 241.125 199.301 241.978C200.074 242.818 200.461 243.978 200.461 245.458V251.978H197.061V245.918C197.061 245.171 196.868 244.591 196.481 244.178C196.094 243.765 195.574 243.558 194.921 243.558C194.268 243.558 193.748 243.765 193.361 244.178C192.974 244.591 192.781 245.171 192.781 245.918V251.978H189.361V237.178H192.781V242.318C193.128 241.825 193.601 241.431 194.201 241.138C194.801 240.845 195.474 240.698 196.221 240.698ZM211.438 243.538V246.378H202.638V243.538H211.438ZM215.019 243.578C215.673 243.551 216.153 243.411 216.459 243.158C216.766 242.891 216.919 242.518 216.919 242.038C216.919 241.678 216.853 240.965 216.719 239.898C216.706 239.791 216.666 239.451 216.599 238.878C216.533 238.291 216.499 237.765 216.499 237.298C216.499 236.165 216.846 235.285 217.539 234.658C218.233 234.018 219.159 233.698 220.319 233.698H221.759V236.498H220.979C220.553 236.498 220.246 236.591 220.059 236.778C219.873 236.965 219.779 237.251 219.779 237.638C219.779 237.931 219.833 238.598 219.939 239.638C220.059 240.931 220.119 241.778 220.119 242.178C220.119 242.911 219.939 243.518 219.579 243.998C219.233 244.478 218.699 244.785 217.979 244.918V244.958C218.699 245.105 219.233 245.418 219.579 245.898C219.939 246.365 220.119 246.971 220.119 247.718C220.119 248.118 220.059 248.965 219.939 250.258C219.833 251.271 219.779 251.931 219.779 252.238C219.779 252.625 219.873 252.911 220.059 253.098C220.246 253.298 220.553 253.398 220.979 253.398H221.759V256.198H220.319C219.159 256.198 218.233 255.878 217.539 255.238C216.846 254.611 216.499 253.725 216.499 252.578C216.499 252.111 216.533 251.591 216.599 251.018C216.666 250.431 216.706 250.085 216.719 249.978C216.853 248.911 216.919 248.198 216.919 247.838C216.919 247.385 216.766 247.025 216.459 246.758C216.153 246.478 215.673 246.325 215.019 246.298V243.578ZM223.74 246.398C223.74 245.238 223.973 244.225 224.44 243.358C224.92 242.491 225.58 241.825 226.42 241.358C227.273 240.891 228.246 240.658 229.34 240.658C230.74 240.658 231.906 241.025 232.84 241.758C233.786 242.491 234.406 243.525 234.7 244.858H231.06C230.753 244.005 230.16 243.578 229.28 243.578C228.653 243.578 228.153 243.825 227.78 244.318C227.406 244.798 227.22 245.491 227.22 246.398C227.22 247.305 227.406 248.005 227.78 248.498C228.153 248.978 228.653 249.218 229.28 249.218C230.16 249.218 230.753 248.791 231.06 247.938H234.7C234.406 249.245 233.786 250.271 232.84 251.018C231.893 251.765 230.726 252.138 229.34 252.138C228.246 252.138 227.273 251.905 226.42 251.438C225.58 250.971 224.92 250.305 224.44 249.438C223.973 248.571 223.74 247.558 223.74 246.398ZM247.549 240.818V251.978H244.129V250.458C243.782 250.951 243.309 251.351 242.709 251.658C242.122 251.951 241.469 252.098 240.749 252.098C239.896 252.098 239.142 251.911 238.489 251.538C237.836 251.151 237.329 250.598 236.969 249.878C236.609 249.158 236.429 248.311 236.429 247.338V240.818H239.829V246.878C239.829 247.625 240.022 248.205 240.409 248.618C240.796 249.031 241.316 249.238 241.969 249.238C242.636 249.238 243.162 249.031 243.549 248.618C243.936 248.205 244.129 247.625 244.129 246.878V240.818H247.549ZM254.546 252.138C253.572 252.138 252.706 251.971 251.946 251.638C251.186 251.305 250.586 250.851 250.146 250.278C249.706 249.691 249.459 249.038 249.406 248.318H252.786C252.826 248.705 253.006 249.018 253.326 249.258C253.646 249.498 254.039 249.618 254.506 249.618C254.932 249.618 255.259 249.538 255.486 249.378C255.726 249.205 255.846 248.985 255.846 248.718C255.846 248.398 255.679 248.165 255.346 248.018C255.012 247.858 254.472 247.685 253.726 247.498C252.926 247.311 252.259 247.118 251.726 246.918C251.192 246.705 250.732 246.378 250.346 245.938C249.959 245.485 249.766 244.878 249.766 244.118C249.766 243.478 249.939 242.898 250.286 242.378C250.646 241.845 251.166 241.425 251.846 241.118C252.539 240.811 253.359 240.658 254.306 240.658C255.706 240.658 256.806 241.005 257.606 241.698C258.419 242.391 258.886 243.311 259.006 244.458H255.846C255.792 244.071 255.619 243.765 255.326 243.538C255.046 243.311 254.672 243.198 254.206 243.198C253.806 243.198 253.499 243.278 253.286 243.438C253.072 243.585 252.966 243.791 252.966 244.058C252.966 244.378 253.132 244.618 253.466 244.778C253.812 244.938 254.346 245.098 255.066 245.258C255.892 245.471 256.566 245.685 257.086 245.898C257.606 246.098 258.059 246.431 258.446 246.898C258.846 247.351 259.052 247.965 259.066 248.738C259.066 249.391 258.879 249.978 258.506 250.498C258.146 251.005 257.619 251.405 256.926 251.698C256.246 251.991 255.452 252.138 254.546 252.138ZM267.378 249.078V251.978H265.638C264.398 251.978 263.431 251.678 262.738 251.078C262.045 250.465 261.698 249.471 261.698 248.098V243.658H260.338V240.818H261.698V238.098H265.118V240.818H267.358V243.658H265.118V248.138C265.118 248.471 265.198 248.711 265.358 248.858C265.518 249.005 265.785 249.078 266.158 249.078H267.378ZM274.363 252.138C273.27 252.138 272.283 251.905 271.403 251.438C270.536 250.971 269.85 250.305 269.343 249.438C268.85 248.571 268.603 247.558 268.603 246.398C268.603 245.251 268.856 244.245 269.363 243.378C269.87 242.498 270.563 241.825 271.443 241.358C272.323 240.891 273.31 240.658 274.403 240.658C275.496 240.658 276.483 240.891 277.363 241.358C278.243 241.825 278.936 242.498 279.443 243.378C279.95 244.245 280.203 245.251 280.203 246.398C280.203 247.545 279.943 248.558 279.423 249.438C278.916 250.305 278.216 250.971 277.323 251.438C276.443 251.905 275.456 252.138 274.363 252.138ZM274.363 249.178C275.016 249.178 275.57 248.938 276.023 248.458C276.49 247.978 276.723 247.291 276.723 246.398C276.723 245.505 276.496 244.818 276.043 244.338C275.603 243.858 275.056 243.618 274.403 243.618C273.736 243.618 273.183 243.858 272.743 244.338C272.303 244.805 272.083 245.491 272.083 246.398C272.083 247.291 272.296 247.978 272.723 248.458C273.163 248.938 273.71 249.178 274.363 249.178ZM296.257 240.698C297.644 240.698 298.744 241.118 299.557 241.958C300.384 242.798 300.797 243.965 300.797 245.458V251.978H297.397V245.918C297.397 245.198 297.204 244.645 296.817 244.258C296.444 243.858 295.924 243.658 295.257 243.658C294.591 243.658 294.064 243.858 293.677 244.258C293.304 244.645 293.117 245.198 293.117 245.918V251.978H289.717V245.918C289.717 245.198 289.524 244.645 289.137 244.258C288.764 243.858 288.244 243.658 287.577 243.658C286.911 243.658 286.384 243.858 285.997 244.258C285.624 244.645 285.437 245.198 285.437 245.918V251.978H282.017V240.818H285.437V242.218C285.784 241.751 286.237 241.385 286.797 241.118C287.357 240.838 287.991 240.698 288.697 240.698C289.537 240.698 290.284 240.878 290.937 241.238C291.604 241.598 292.124 242.111 292.497 242.778C292.884 242.165 293.411 241.665 294.077 241.278C294.744 240.891 295.471 240.698 296.257 240.698ZM312.448 248.778L314.868 240.818H318.508L314.548 251.978H310.328L306.368 240.818H310.028L312.448 248.778ZM319.267 246.378C319.267 245.231 319.48 244.225 319.907 243.358C320.347 242.491 320.94 241.825 321.687 241.358C322.434 240.891 323.267 240.658 324.187 240.658C324.974 240.658 325.66 240.818 326.247 241.138C326.847 241.458 327.307 241.878 327.627 242.398V240.818H331.047V251.978H327.627V250.398C327.294 250.918 326.827 251.338 326.227 251.658C325.64 251.978 324.954 252.138 324.167 252.138C323.26 252.138 322.434 251.905 321.687 251.438C320.94 250.958 320.347 250.285 319.907 249.418C319.48 248.538 319.267 247.525 319.267 246.378ZM327.627 246.398C327.627 245.545 327.387 244.871 326.907 244.378C326.44 243.885 325.867 243.638 325.187 243.638C324.507 243.638 323.927 243.885 323.447 244.378C322.98 244.858 322.747 245.525 322.747 246.378C322.747 247.231 322.98 247.911 323.447 248.418C323.927 248.911 324.507 249.158 325.187 249.158C325.867 249.158 326.44 248.911 326.907 248.418C327.387 247.925 327.627 247.251 327.627 246.398ZM336.941 237.178V251.978H333.521V237.178H336.941ZM350.44 240.818V251.978H347.02V250.458C346.673 250.951 346.2 251.351 345.6 251.658C345.013 251.951 344.36 252.098 343.64 252.098C342.786 252.098 342.033 251.911 341.38 251.538C340.726 251.151 340.22 250.598 339.86 249.878C339.5 249.158 339.32 248.311 339.32 247.338V240.818H342.72V246.878C342.72 247.625 342.913 248.205 343.3 248.618C343.686 249.031 344.206 249.238 344.86 249.238C345.526 249.238 346.053 249.031 346.44 248.618C346.826 248.205 347.02 247.625 347.02 246.878V240.818H350.44ZM363.416 246.218C363.416 246.538 363.396 246.871 363.356 247.218H355.616C355.67 247.911 355.89 248.445 356.276 248.818C356.676 249.178 357.163 249.358 357.736 249.358C358.59 249.358 359.183 248.998 359.516 248.278H363.156C362.97 249.011 362.63 249.671 362.136 250.258C361.656 250.845 361.05 251.305 360.316 251.638C359.583 251.971 358.763 252.138 357.856 252.138C356.763 252.138 355.79 251.905 354.936 251.438C354.083 250.971 353.416 250.305 352.936 249.438C352.456 248.571 352.216 247.558 352.216 246.398C352.216 245.238 352.45 244.225 352.916 243.358C353.396 242.491 354.063 241.825 354.916 241.358C355.77 240.891 356.75 240.658 357.856 240.658C358.936 240.658 359.896 240.885 360.736 241.338C361.576 241.791 362.23 242.438 362.696 243.278C363.176 244.118 363.416 245.098 363.416 246.218ZM359.916 245.318C359.916 244.731 359.716 244.265 359.316 243.918C358.916 243.571 358.416 243.398 357.816 243.398C357.243 243.398 356.756 243.565 356.356 243.898C355.97 244.231 355.73 244.705 355.636 245.318H359.916ZM372.14 246.298C371.487 246.325 371.007 246.478 370.7 246.758C370.394 247.025 370.24 247.385 370.24 247.838C370.24 248.198 370.307 248.911 370.44 249.978C370.454 250.085 370.494 250.431 370.56 251.018C370.627 251.591 370.66 252.111 370.66 252.578C370.66 253.725 370.314 254.611 369.62 255.238C368.927 255.878 368 256.198 366.84 256.198H365.4V253.398H366.18C366.607 253.398 366.914 253.298 367.1 253.098C367.287 252.911 367.38 252.625 367.38 252.238C367.38 251.931 367.327 251.271 367.22 250.258C367.1 248.965 367.04 248.118 367.04 247.718C367.04 246.971 367.214 246.365 367.56 245.898C367.92 245.418 368.46 245.105 369.18 244.958V244.918C368.46 244.785 367.92 244.478 367.56 243.998C367.214 243.518 367.04 242.911 367.04 242.178C367.04 241.778 367.1 240.931 367.22 239.638C367.327 238.598 367.38 237.931 367.38 237.638C367.38 237.251 367.287 236.965 367.1 236.778C366.914 236.591 366.607 236.498 366.18 236.498H365.4V233.698H366.84C368 233.698 368.927 234.018 369.62 234.658C370.314 235.285 370.66 236.165 370.66 237.298C370.66 237.765 370.627 238.291 370.56 238.878C370.494 239.451 370.454 239.791 370.44 239.898C370.307 240.965 370.24 241.678 370.24 242.038C370.24 242.518 370.394 242.891 370.7 243.158C371.007 243.411 371.487 243.551 372.14 243.578V246.298Z" fill="black"/>
<path d="M591 165.518C591 156.865 598.015 149.85 606.668 149.85H622.541V181.185H606.668C598.015 181.185 591 174.171 591 165.518V165.518Z" fill="#262D47"/>
<path d="M591 87.4707C591 78.8178 598.015 71.8032 606.668 71.8032H622.541V103.138H606.668C598.015 103.138 591 96.1237 591 87.4707V87.4707Z" fill="#262D47"/>
<defs>
<filter id="filter0_d" x="0" y="0" width="627" height="341" filterUnits="userSpaceOnUse" color-interpolation-filters="sRGB">
<feFlood flood-opacity="0" result="BackgroundImageFix"/>
<feColorMatrix in="SourceAlpha" type="matrix" values="0 0 0 0 0 0 0 0 0 0 0 0 0 0 0 0 0 0 127 0" result="hardAlpha"/>
<feOffset dy="4"/>
<feGaussianBlur stdDeviation="2"/>
<feComposite in2="hardAlpha" operator="out"/>
<feColorMatrix type="matrix" values="0 0 0 0 0 0 0 0 0 0 0 0 0 0 0 0 0 0 0.25 0"/>
<feBlend mode="normal" in2="BackgroundImageFix" result="effect1_dropShadow"/>
<feBlend mode="normal" in="SourceGraphic" in2="effect1_dropShadow" result="shape"/>
</filter>
</defs>
</svg>
