<svg width="627" height="341" viewBox="0 0 627 341" fill="none" xmlns="http://www.w3.org/2000/svg">
<g filter="url(#filter0_d)">
<path d="M4 18C4 8.05888 12.0589 0 22 0H605C614.941 0 623 8.05887 623 18V315C623 324.941 614.941 333 605 333H22C12.0589 333 4 324.941 4 315V18Z" fill="white"/>
</g>
<rect x="4" y="135.065" width="619" height="62.6703" fill="#00B45D" fill-opacity="0.36"/>
<path d="M170.595 168.993L173.015 161.033H176.655L172.695 172.193H168.475L164.515 161.033H168.175L170.595 168.993ZM186.695 163.753V166.593H177.895V163.753H186.695ZM205.717 161.033L202.697 172.193H198.917L197.157 164.953L195.337 172.193H191.577L188.537 161.033H191.957L193.537 169.013L195.417 161.033H199.037L200.937 168.973L202.497 161.033H205.717ZM215.621 163.753V166.593H206.821V163.753H215.621ZM223.162 172.353C222.189 172.353 221.322 172.186 220.562 171.853C219.802 171.519 219.202 171.066 218.762 170.493C218.322 169.906 218.076 169.253 218.022 168.533H221.402C221.442 168.919 221.622 169.233 221.942 169.473C222.262 169.713 222.656 169.833 223.122 169.833C223.549 169.833 223.876 169.753 224.102 169.593C224.342 169.419 224.462 169.199 224.462 168.933C224.462 168.613 224.296 168.379 223.962 168.233C223.629 168.073 223.089 167.899 222.342 167.713C221.542 167.526 220.876 167.333 220.342 167.133C219.809 166.919 219.349 166.593 218.962 166.153C218.576 165.699 218.382 165.093 218.382 164.333C218.382 163.693 218.556 163.113 218.902 162.593C219.262 162.059 219.782 161.639 220.462 161.333C221.156 161.026 221.976 160.873 222.922 160.873C224.322 160.873 225.422 161.219 226.222 161.913C227.036 162.606 227.502 163.526 227.622 164.673H224.462C224.409 164.286 224.236 163.979 223.942 163.753C223.662 163.526 223.289 163.413 222.822 163.413C222.422 163.413 222.116 163.493 221.902 163.653C221.689 163.799 221.582 164.006 221.582 164.273C221.582 164.593 221.749 164.833 222.082 164.993C222.429 165.153 222.962 165.313 223.682 165.473C224.509 165.686 225.182 165.899 225.702 166.113C226.222 166.313 226.676 166.646 227.062 167.113C227.462 167.566 227.669 168.179 227.682 168.953C227.682 169.606 227.496 170.193 227.122 170.713C226.762 171.219 226.236 171.619 225.542 171.913C224.862 172.206 224.069 172.353 223.162 172.353ZM229.095 166.613C229.095 165.453 229.328 164.439 229.795 163.573C230.275 162.706 230.935 162.039 231.775 161.573C232.628 161.106 233.601 160.873 234.695 160.873C236.095 160.873 237.261 161.239 238.195 161.973C239.141 162.706 239.761 163.739 240.055 165.073H236.415C236.108 164.219 235.515 163.793 234.635 163.793C234.008 163.793 233.508 164.039 233.135 164.533C232.761 165.013 232.575 165.706 232.575 166.613C232.575 167.519 232.761 168.219 233.135 168.713C233.508 169.193 234.008 169.433 234.635 169.433C235.515 169.433 236.108 169.006 236.415 168.153H240.055C239.761 169.459 239.141 170.486 238.195 171.233C237.248 171.979 236.081 172.353 234.695 172.353C233.601 172.353 232.628 172.119 231.775 171.653C230.935 171.186 230.275 170.519 229.795 169.653C229.328 168.786 229.095 167.773 229.095 166.613ZM245.304 162.893C245.704 162.279 246.204 161.799 246.804 161.453C247.404 161.093 248.071 160.913 248.804 160.913V164.533H247.864C247.011 164.533 246.371 164.719 245.944 165.093C245.517 165.453 245.304 166.093 245.304 167.013V172.193H241.884V161.033H245.304V162.893ZM260.959 166.433C260.959 166.753 260.939 167.086 260.899 167.433H253.159C253.212 168.126 253.432 168.659 253.819 169.033C254.219 169.393 254.705 169.573 255.279 169.573C256.132 169.573 256.725 169.213 257.059 168.493H260.699C260.512 169.226 260.172 169.886 259.679 170.473C259.199 171.059 258.592 171.519 257.859 171.853C257.125 172.186 256.305 172.353 255.399 172.353C254.305 172.353 253.332 172.119 252.479 171.653C251.625 171.186 250.959 170.519 250.479 169.653C249.999 168.786 249.759 167.773 249.759 166.613C249.759 165.453 249.992 164.439 250.459 163.573C250.939 162.706 251.605 162.039 252.459 161.573C253.312 161.106 254.292 160.873 255.399 160.873C256.479 160.873 257.439 161.099 258.279 161.553C259.119 162.006 259.772 162.653 260.239 163.493C260.719 164.333 260.959 165.313 260.959 166.433ZM257.459 165.533C257.459 164.946 257.259 164.479 256.859 164.133C256.459 163.786 255.959 163.613 255.359 163.613C254.785 163.613 254.299 163.779 253.899 164.113C253.512 164.446 253.272 164.919 253.179 165.533H257.459ZM273.283 166.433C273.283 166.753 273.263 167.086 273.223 167.433H265.483C265.536 168.126 265.756 168.659 266.143 169.033C266.543 169.393 267.03 169.573 267.603 169.573C268.456 169.573 269.05 169.213 269.383 168.493H273.023C272.836 169.226 272.496 169.886 272.003 170.473C271.523 171.059 270.916 171.519 270.183 171.853C269.45 172.186 268.63 172.353 267.723 172.353C266.63 172.353 265.656 172.119 264.803 171.653C263.95 171.186 263.283 170.519 262.803 169.653C262.323 168.786 262.083 167.773 262.083 166.613C262.083 165.453 262.316 164.439 262.783 163.573C263.263 162.706 263.93 162.039 264.783 161.573C265.636 161.106 266.616 160.873 267.723 160.873C268.803 160.873 269.763 161.099 270.603 161.553C271.443 162.006 272.096 162.653 272.563 163.493C273.043 164.333 273.283 165.313 273.283 166.433ZM269.783 165.533C269.783 164.946 269.583 164.479 269.183 164.133C268.783 163.786 268.283 163.613 267.683 163.613C267.11 163.613 266.623 163.779 266.223 164.113C265.836 164.446 265.596 164.919 265.503 165.533H269.783ZM281.887 160.913C283.194 160.913 284.234 161.339 285.007 162.193C285.794 163.033 286.187 164.193 286.187 165.673V172.193H282.787V166.133C282.787 165.386 282.594 164.806 282.207 164.393C281.821 163.979 281.301 163.773 280.647 163.773C279.994 163.773 279.474 163.979 279.087 164.393C278.701 164.806 278.507 165.386 278.507 166.133V172.193H275.087V161.033H278.507V162.513C278.854 162.019 279.321 161.633 279.907 161.353C280.494 161.059 281.154 160.913 281.887 160.913Z" fill="black"/>
<path d="M170.595 89.0339L173.015 81.0739H176.655L172.695 92.2339H168.475L164.515 81.0739H168.175L170.595 89.0339ZM186.695 83.7939V86.6339H177.895V83.7939H186.695ZM189.017 86.6339C189.017 85.4873 189.23 84.4806 189.657 83.6139C190.097 82.7473 190.69 82.0806 191.437 81.6139C192.183 81.1473 193.017 80.9139 193.937 80.9139C194.67 80.9139 195.337 81.0673 195.937 81.3739C196.55 81.6806 197.03 82.0939 197.377 82.6139V77.4339H200.797V92.2339H197.377V90.6339C197.057 91.1673 196.597 91.5939 195.997 91.9139C195.41 92.2339 194.723 92.3939 193.937 92.3939C193.017 92.3939 192.183 92.1606 191.437 91.6939C190.69 91.2139 190.097 90.5406 189.657 89.6739C189.23 88.7939 189.017 87.7806 189.017 86.6339ZM197.377 86.6539C197.377 85.8006 197.137 85.1273 196.657 84.6339C196.19 84.1406 195.617 83.8939 194.937 83.8939C194.257 83.8939 193.677 84.1406 193.197 84.6339C192.73 85.1139 192.497 85.7806 192.497 86.6339C192.497 87.4873 192.73 88.1673 193.197 88.6739C193.677 89.1673 194.257 89.4139 194.937 89.4139C195.617 89.4139 196.19 89.1673 196.657 88.6739C197.137 88.1806 197.377 87.5073 197.377 86.6539ZM211.871 83.7939V86.6339H203.071V83.7939H211.871ZM220.472 83.9139H218.632V92.2339H215.212V83.9139H213.972V81.0739H215.212V80.7539C215.212 79.3806 215.606 78.3406 216.392 77.6339C217.179 76.9139 218.332 76.5539 219.852 76.5539C220.106 76.5539 220.292 76.5606 220.412 76.5739V79.4739C219.759 79.4339 219.299 79.5273 219.032 79.7539C218.766 79.9806 218.632 80.3873 218.632 80.9739V81.0739H220.472V83.9139ZM225.499 77.4339V92.2339H222.079V77.4339H225.499ZM238.498 86.4739C238.498 86.7939 238.478 87.1273 238.438 87.4739H230.698C230.751 88.1673 230.971 88.7006 231.358 89.0739C231.758 89.4339 232.244 89.6139 232.818 89.6139C233.671 89.6139 234.264 89.2539 234.598 88.5339H238.238C238.051 89.2673 237.711 89.9273 237.218 90.5139C236.738 91.1006 236.131 91.5606 235.398 91.8939C234.664 92.2273 233.844 92.3939 232.938 92.3939C231.844 92.3939 230.871 92.1606 230.018 91.6939C229.164 91.2273 228.498 90.5606 228.018 89.6939C227.538 88.8273 227.298 87.8139 227.298 86.6539C227.298 85.4939 227.531 84.4806 227.998 83.6139C228.478 82.7473 229.144 82.0806 229.998 81.6139C230.851 81.1473 231.831 80.9139 232.938 80.9139C234.018 80.9139 234.978 81.1406 235.818 81.5939C236.658 82.0473 237.311 82.6939 237.778 83.5339C238.258 84.3739 238.498 85.3539 238.498 86.4739ZM234.998 85.5739C234.998 84.9873 234.798 84.5206 234.398 84.1739C233.998 83.8273 233.498 83.6539 232.898 83.6539C232.324 83.6539 231.838 83.8206 231.438 84.1539C231.051 84.4873 230.811 84.9606 230.718 85.5739H234.998ZM246.902 92.2339L244.762 89.1339L242.962 92.2339H239.262L242.942 86.5339L239.162 81.0739H243.002L245.142 84.1539L246.942 81.0739H250.642L246.902 86.6939L250.742 92.2339H246.902Z" fill="black"/>
<rect x="56.569" y="142.629" width="57.8259" height="47.5429" rx="10" fill="#262D47"/>
<path d="M88.6241 166.399H84.4481V170.671H80.5601V166.399H76.3841V162.727H80.5601V158.431H84.4481V162.727H88.6241V166.399Z" fill="#56FF9A"/>
<rect x="56.569" y="62.6703" width="57.8259" height="47.5429" rx="10" fill="#989898"/>
<path d="M86.7761 82.8643V86.2723H76.2161V82.8643H86.7761Z" fill="#DDFFEB"/>
<rect x="4" y="215.024" width="619" height="62.6703" fill="#00B45D" fill-opacity="0.36"/>
<path d="M591.459 245.819C591.459 237.166 598.473 230.151 607.126 230.151H623V261.486H607.126C598.473 261.486 591.459 254.472 591.459 245.819V245.819Z" fill="#262D47"/>
<rect x="56.569" y="222.587" width="57.8259" height="47.5429" rx="10" fill="#262D47"/>
<path d="M88.6241 246.358H84.4481V250.63H80.5601V246.358H76.3841V242.686H80.5601V238.39H84.4481V242.686H88.6241V246.358Z" fill="#56FF9A"/>
<path d="M170.595 248.951L173.015 240.991H176.655L172.695 252.151H168.475L164.515 240.991H168.175L170.595 248.951ZM186.695 243.711V246.551H177.895V243.711H186.695ZM196.557 240.871C197.837 240.871 198.863 241.298 199.637 242.151C200.41 242.991 200.797 244.151 200.797 245.631V252.151H197.397V246.091C197.397 245.344 197.203 244.764 196.817 244.351C196.43 243.938 195.91 243.731 195.257 243.731C194.603 243.731 194.083 243.938 193.697 244.351C193.31 244.764 193.117 245.344 193.117 246.091V252.151H189.697V237.351H193.117V242.491C193.463 241.998 193.937 241.604 194.537 241.311C195.137 241.018 195.81 240.871 196.557 240.871ZM211.773 243.711V246.551H202.973V243.711H211.773ZM214.075 240.731V237.551H219.615V252.151H216.055V240.731H214.075ZM221.954 244.651C221.954 242.358 222.394 240.551 223.274 239.231C224.168 237.911 225.601 237.251 227.574 237.251C229.548 237.251 230.974 237.911 231.854 239.231C232.748 240.551 233.194 242.358 233.194 244.651C233.194 246.971 232.748 248.791 231.854 250.111C230.974 251.431 229.548 252.091 227.574 252.091C225.601 252.091 224.168 251.431 223.274 250.111C222.394 248.791 221.954 246.971 221.954 244.651ZM229.834 244.651C229.834 243.304 229.688 242.271 229.394 241.551C229.101 240.818 228.494 240.451 227.574 240.451C226.654 240.451 226.048 240.818 225.754 241.551C225.461 242.271 225.314 243.304 225.314 244.651C225.314 245.558 225.368 246.311 225.474 246.911C225.581 247.498 225.794 247.978 226.114 248.351C226.448 248.711 226.934 248.891 227.574 248.891C228.214 248.891 228.694 248.711 229.014 248.351C229.348 247.978 229.568 247.498 229.674 246.911C229.781 246.311 229.834 245.558 229.834 244.651ZM235.001 244.651C235.001 242.358 235.441 240.551 236.321 239.231C237.214 237.911 238.648 237.251 240.621 237.251C242.594 237.251 244.021 237.911 244.901 239.231C245.794 240.551 246.241 242.358 246.241 244.651C246.241 246.971 245.794 248.791 244.901 250.111C244.021 251.431 242.594 252.091 240.621 252.091C238.648 252.091 237.214 251.431 236.321 250.111C235.441 248.791 235.001 246.971 235.001 244.651ZM242.881 244.651C242.881 243.304 242.734 242.271 242.441 241.551C242.148 240.818 241.541 240.451 240.621 240.451C239.701 240.451 239.094 240.818 238.801 241.551C238.508 242.271 238.361 243.304 238.361 244.651C238.361 245.558 238.414 246.311 238.521 246.911C238.628 247.498 238.841 247.978 239.161 248.351C239.494 248.711 239.981 248.891 240.621 248.891C241.261 248.891 241.741 248.711 242.061 248.351C242.394 247.978 242.614 247.498 242.721 246.911C242.828 246.311 242.881 245.558 242.881 244.651ZM251.808 242.571C252.141 242.051 252.601 241.631 253.188 241.311C253.775 240.991 254.461 240.831 255.248 240.831C256.168 240.831 257.001 241.064 257.748 241.531C258.495 241.998 259.081 242.664 259.508 243.531C259.948 244.398 260.168 245.404 260.168 246.551C260.168 247.698 259.948 248.711 259.508 249.591C259.081 250.458 258.495 251.131 257.748 251.611C257.001 252.078 256.168 252.311 255.248 252.311C254.475 252.311 253.788 252.151 253.188 251.831C252.601 251.511 252.141 251.098 251.808 250.591V257.471H248.388V240.991H251.808V242.571ZM256.688 246.551C256.688 245.698 256.448 245.031 255.968 244.551C255.501 244.058 254.921 243.811 254.228 243.811C253.548 243.811 252.968 244.058 252.488 244.551C252.021 245.044 251.788 245.718 251.788 246.571C251.788 247.424 252.021 248.098 252.488 248.591C252.968 249.084 253.548 249.331 254.228 249.331C254.908 249.331 255.488 249.084 255.968 248.591C256.448 248.084 256.688 247.404 256.688 246.551ZM268.562 252.151L266.422 249.051L264.622 252.151H260.922L264.602 246.451L260.822 240.991H264.662L266.802 244.071L268.602 240.991H272.302L268.562 246.611L272.402 252.151H268.562Z" fill="black"/>
<path d="M591.459 165.86C591.459 157.207 598.473 150.193 607.126 150.193H623V181.528H607.126C598.473 181.528 591.459 174.513 591.459 165.86V165.86Z" fill="#262D47"/>
<defs>
<filter id="filter0_d" x="0" y="0" width="627" height="341" filterUnits="userSpaceOnUse" color-interpolation-filters="sRGB">
<feFlood flood-opacity="0" result="BackgroundImageFix"/>
<feColorMatrix in="SourceAlpha" type="matrix" values="0 0 0 0 0 0 0 0 0 0 0 0 0 0 0 0 0 0 127 0" result="hardAlpha"/>
<feOffset dy="4"/>
<feGaussianBlur stdDeviation="2"/>
<feComposite in2="hardAlpha" operator="out"/>
<feColorMatrix type="matrix" values="0 0 0 0 0 0 0 0 0 0 0 0 0 0 0 0 0 0 0.25 0"/>
<feBlend mode="normal" in2="BackgroundImageFix" result="effect1_dropShadow"/>
<feBlend mode="normal" in="SourceGraphic" in2="effect1_dropShadow" result="shape"/>
</filter>
</defs>
</svg>
